<mxfile host="65bd71144e">
    <diagram id="1tfxErlRbewRherAM0fn" name="Page-1">
        <mxGraphModel dx="1163" dy="779" grid="1" gridSize="10" guides="1" tooltips="1" connect="1" arrows="1" fold="1" page="1" pageScale="1" pageWidth="1100" pageHeight="1700" math="0" shadow="0">
            <root>
                <mxCell id="0"/>
                <mxCell id="1" parent="0"/>
                <mxCell id="2" value="" style="rounded=0;whiteSpace=wrap;html=1;fillColor=#76608a;fontColor=#ffffff;strokeColor=#432D57;" vertex="1" parent="1">
                    <mxGeometry x="10" y="10" width="1080" height="40" as="geometry"/>
                </mxCell>
                <mxCell id="3" value="FIGHTER-FLIGHT-COMPUTER-VERSION-TWO" style="text;html=1;strokeColor=#432D57;fillColor=#76608a;align=center;verticalAlign=middle;whiteSpace=wrap;rounded=0;fontColor=#ffffff;fontSize=40;" vertex="1" parent="1">
                    <mxGeometry x="20" y="15" width="1060" height="30" as="geometry"/>
                </mxCell>
                <mxCell id="5" value="" style="rounded=0;whiteSpace=wrap;html=1;fontSize=12;" vertex="1" parent="1">
                    <mxGeometry x="10" y="60" width="1080" height="210" as="geometry"/>
                </mxCell>
                <mxCell id="6" value="COMPONENTS LIST :-" style="text;html=1;strokeColor=#432D57;fillColor=#76608a;align=center;verticalAlign=middle;whiteSpace=wrap;rounded=0;fontSize=12;fontColor=#ffffff;" vertex="1" parent="1">
                    <mxGeometry x="340" y="70" width="370" height="30" as="geometry"/>
                </mxCell>
                <mxCell id="7" value="STM32F103C8" style="text;html=1;strokeColor=#314354;fillColor=#647687;align=center;verticalAlign=middle;whiteSpace=wrap;rounded=0;fontSize=12;fontColor=#ffffff;" vertex="1" parent="1">
                    <mxGeometry x="30" y="130" width="240" height="30" as="geometry"/>
                </mxCell>
                <mxCell id="8" value="MPU6050" style="text;html=1;strokeColor=#314354;fillColor=#647687;align=center;verticalAlign=middle;whiteSpace=wrap;rounded=0;fontSize=12;fontColor=#ffffff;" vertex="1" parent="1">
                    <mxGeometry x="30" y="170" width="240" height="30" as="geometry"/>
                </mxCell>
                <mxCell id="9" value="BMP280" style="text;html=1;strokeColor=#314354;fillColor=#647687;align=center;verticalAlign=middle;whiteSpace=wrap;rounded=0;fontSize=12;fontColor=#ffffff;" vertex="1" parent="1">
                    <mxGeometry x="30" y="210" width="240" height="30" as="geometry"/>
                </mxCell>
                <mxCell id="10" value="LEDS&amp;nbsp;" style="text;html=1;strokeColor=#314354;fillColor=#647687;align=center;verticalAlign=middle;whiteSpace=wrap;rounded=0;fontSize=12;fontColor=#ffffff;" vertex="1" parent="1">
                    <mxGeometry x="310" y="130" width="230" height="30" as="geometry"/>
                </mxCell>
                <mxCell id="11" value="MONSFET" style="text;html=1;strokeColor=#314354;fillColor=#647687;align=center;verticalAlign=middle;whiteSpace=wrap;rounded=0;fontSize=12;fontColor=#ffffff;" vertex="1" parent="1">
                    <mxGeometry x="310" y="170" width="230" height="30" as="geometry"/>
                </mxCell>
                <mxCell id="12" value="BUZZER" style="text;html=1;strokeColor=#314354;fillColor=#647687;align=center;verticalAlign=middle;whiteSpace=wrap;rounded=0;fontSize=12;fontColor=#ffffff;" vertex="1" parent="1">
                    <mxGeometry x="310" y="210" width="230" height="30" as="geometry"/>
                </mxCell>
                <mxCell id="13" value="INTERNAL LED&amp;nbsp;" style="text;html=1;strokeColor=#314354;fillColor=#647687;align=center;verticalAlign=middle;whiteSpace=wrap;rounded=0;fontSize=12;fontColor=#ffffff;" vertex="1" parent="1">
                    <mxGeometry x="570" y="130" width="310" height="30" as="geometry"/>
                </mxCell>
                <mxCell id="14" value="NRF24L01" style="text;html=1;strokeColor=#314354;fillColor=#647687;align=center;verticalAlign=middle;whiteSpace=wrap;rounded=0;fontSize=12;fontColor=#ffffff;" vertex="1" parent="1">
                    <mxGeometry x="570" y="170" width="310" height="30" as="geometry"/>
                </mxCell>
                <mxCell id="15" value="" style="rounded=0;whiteSpace=wrap;html=1;fontSize=12;" vertex="1" parent="1">
                    <mxGeometry x="10" y="280" width="1080" height="1390" as="geometry"/>
                </mxCell>
                <mxCell id="19" value="STM32F103C8" style="text;html=1;strokeColor=#432D57;fillColor=#76608a;align=center;verticalAlign=middle;whiteSpace=wrap;rounded=0;fontSize=12;fontColor=#ffffff;" vertex="1" parent="1">
                    <mxGeometry x="30" y="300" width="230" height="30" as="geometry"/>
                </mxCell>
                <mxCell id="20" value="MPU6050" style="text;html=1;strokeColor=#432D57;fillColor=#76608a;align=center;verticalAlign=middle;whiteSpace=wrap;rounded=0;fontSize=12;fontColor=#ffffff;" vertex="1" parent="1">
                    <mxGeometry x="380" y="300" width="240" height="30" as="geometry"/>
                </mxCell>
            </root>
        </mxGraphModel>
    </diagram>
</mxfile>